<svg width="152" height="67" viewBox="0 0 152 67" fill="none" xmlns="http://www.w3.org/2000/svg">
<path d="M3.21503 46.2456H19.5392L18.7849 51.0119H8.0266L7.53592 54.1258H17.2762L16.5732 58.5763H6.83286L6.32021 61.8004H17.225L16.4706 66.5961H0L3.21503 46.2456Z" fill="white"/>
<path d="M21.4213 46.2456H27.368L30.9639 54.1258L37.0498 46.2456H42.9965L39.7814 66.5961H34.1863L36.0318 54.9116L29.5871 62.88H29.4699L25.5591 54.941L23.7209 66.5961H18.2136L21.4287 46.2456H21.4213Z" fill="white"/>
<path d="M45.4279 46.2456H54.1576C59.2621 46.2456 62.1549 48.8601 61.4372 53.3694V53.4281C60.6682 58.2532 56.5817 60.7796 51.565 60.7796H48.7528L47.8374 66.5961H42.2129L45.4279 46.2456ZM52.1509 56.3658C54.121 56.3658 55.5344 55.3229 55.7907 53.6925V53.6338C56.0763 51.8859 54.9705 50.9899 52.9712 50.9899H50.3054L49.4559 56.3658H52.1509Z" fill="white"/>
<path d="M61.4957 56.4759V56.4172C62.4258 50.5713 67.8745 45.8344 74.1362 45.8344C80.3978 45.8344 84.2939 50.5419 83.3785 56.3584V56.4172C82.4484 62.2631 76.9997 67 70.738 67C64.4764 67 60.5803 62.2924 61.4957 56.4759ZM77.5855 56.4759V56.4172C78.0616 53.4502 76.3772 50.9238 73.272 50.9238C70.1668 50.9238 67.7134 53.4208 67.252 56.3584V56.4172C66.7833 59.3254 68.4897 61.9106 71.5949 61.9106C74.7001 61.9106 77.1242 59.4136 77.5855 56.4759Z" fill="white"/>
<path d="M84.1841 46.2456H90.1308L91.8079 58.0182L97.5935 46.1869H102.434L104.478 58.0182L109.875 46.2456H115.705L105.686 66.743H100.787L98.5748 55.0292L92.6354 66.743H87.736L84.1914 46.2456H84.1841Z" fill="white"/>
<path d="M116.774 46.2456H133.098L132.344 51.0119H121.585L121.095 54.1258H130.835L130.132 58.5763H120.392L119.879 61.8004H130.784L130.029 66.5961H113.559L116.774 46.2456Z" fill="white"/>
<path d="M134.98 46.2456H144.574C147.708 46.2456 149.693 47.0608 150.843 48.4268C151.846 49.6166 152.198 51.2176 151.89 53.1638V53.2225C151.385 56.3584 149.437 58.4295 146.712 59.5017L150.433 66.5961H143.966L140.854 60.4344H138.364L137.389 66.5961H131.765L134.98 46.2456ZM142.802 56.0133C144.684 56.0133 145.965 55.0806 146.2 53.5971V53.5383C146.463 51.9079 145.409 51.0927 143.549 51.0927H139.836L139.059 56.0059H142.802V56.0133Z" fill="white"/>
<path d="M102.888 0.910665C101.599 0.286419 100.245 0 98.8237 0C92.3937 0 84.6161 5.82385 75.8645 12.7713C65.2746 4.35504 56.1056 -2.35745 49.0676 1.03551C43.3113 3.81892 42.6522 11.7138 42.6522 17.4201C42.6522 23.1265 43.3187 31.0214 49.0676 33.8048C56.0982 37.2051 65.2746 30.4853 75.8718 22.0689L81.716 17.4201C88.5488 12.059 96.8098 6.04417 99.7392 7.46158C100.135 7.64518 102.09 9.02587 102.09 17.4201C102.09 22.8695 101.27 25.3591 100.581 26.4827C99.8197 28.1866 97.2199 29.2882 92.7525 28.26C93.0015 28.0103 93.3091 27.6284 93.6167 27.1951C93.8511 26.8573 94.0927 26.4901 94.2978 26.1376C94.5981 25.6088 94.8324 25.1167 94.913 24.7569L94.9423 24.5439L90.4896 23.8609L88.1826 23.5084L77.8931 21.9368L77.7759 22.0322L88.0362 27.6064L86.9962 28.6566C86.9962 28.6566 86.9962 28.6566 86.9816 28.6713C86.9157 28.7374 86.5641 29.0825 85.9197 29.5893C85.6633 29.8023 85.3631 30.0299 85.0189 30.2796C84.7333 30.4926 84.411 30.7129 84.0668 30.9479C89.7426 33.8709 95.4696 36.1329 101.182 34.5539H101.189C101.775 34.407 102.339 34.2014 102.903 33.937C108.689 31.1389 109.362 23.1706 109.362 17.4201C109.362 11.6697 108.689 3.70141 102.903 0.910665H102.888ZM53.2494 27.4595C52.8539 27.4595 52.5097 27.3934 52.2168 27.2539C51.8359 27.0703 49.9025 25.719 49.9025 17.4201C49.9025 9.12134 51.8359 7.77738 52.2168 7.59377C55.1096 6.19106 63.2387 12.103 70.0276 17.4201C63.9344 22.2085 56.7354 27.4595 53.2494 27.4595Z" fill="white"/>
<g style="mix-blend-mode:multiply">
<path d="M70.0277 17.4201C68.7681 16.436 67.4645 15.4226 66.1536 14.4458L71.9977 9.7309C73.2647 10.7077 74.561 11.7285 75.8792 12.7713C76.8459 12.0076 68.9878 18.2353 70.035 17.4201H70.0277Z" fill="white"/>
</g>
<path d="M3.21503 46.2456H19.5392L18.7849 51.0119H8.0266L7.53592 54.1258H17.2762L16.5732 58.5763H6.83286L6.32021 61.8004H17.225L16.4706 66.5961H0L3.21503 46.2456Z" fill="white"/>
<path d="M21.4213 46.2456H27.368L30.9639 54.1258L37.0498 46.2456H42.9965L39.7814 66.5961H34.1863L36.0318 54.9116L29.5871 62.88H29.4699L25.5591 54.941L23.7209 66.5961H18.2136L21.4287 46.2456H21.4213Z" fill="white"/>
<path d="M45.4279 46.2456H54.1576C59.2621 46.2456 62.1549 48.8601 61.4372 53.3694V53.4281C60.6682 58.2532 56.5817 60.7796 51.565 60.7796H48.7528L47.8374 66.5961H42.2129L45.4279 46.2456ZM52.1509 56.3658C54.121 56.3658 55.5344 55.3229 55.7907 53.6925V53.6338C56.0763 51.8859 54.9705 50.9899 52.9712 50.9899H50.3054L49.4559 56.3658H52.1509Z" fill="white"/>
<path d="M61.4957 56.4759V56.4172C62.4258 50.5713 67.8745 45.8344 74.1362 45.8344C80.3978 45.8344 84.2939 50.5419 83.3785 56.3584V56.4172C82.4484 62.2631 76.9997 67 70.738 67C64.4764 67 60.5803 62.2924 61.4957 56.4759ZM77.5855 56.4759V56.4172C78.0616 53.4502 76.3772 50.9238 73.272 50.9238C70.1668 50.9238 67.7134 53.4208 67.252 56.3584V56.4172C66.7833 59.3254 68.4897 61.9106 71.5949 61.9106C74.7001 61.9106 77.1242 59.4136 77.5855 56.4759Z" fill="white"/>
<path d="M84.1841 46.2456H90.1308L91.8079 58.0182L97.5935 46.1869H102.434L104.478 58.0182L109.875 46.2456H115.705L105.686 66.743H100.787L98.5748 55.0292L92.6354 66.743H87.736L84.1914 46.2456H84.1841Z" fill="white"/>
<path d="M116.774 46.2456H133.098L132.344 51.0119H121.585L121.095 54.1258H130.835L130.132 58.5763H120.392L119.879 61.8004H130.784L130.029 66.5961H113.559L116.774 46.2456Z" fill="white"/>
<path d="M134.98 46.2456H144.574C147.708 46.2456 149.693 47.0608 150.843 48.4268C151.846 49.6166 152.198 51.2176 151.89 53.1638V53.2225C151.385 56.3584 149.437 58.4295 146.712 59.5017L150.433 66.5961H143.966L140.854 60.4344H138.364L137.389 66.5961H131.765L134.98 46.2456ZM142.802 56.0133C144.684 56.0133 145.965 55.0806 146.2 53.5971V53.5383C146.463 51.9079 145.409 51.0927 143.549 51.0927H139.836L139.059 56.0059H142.802V56.0133Z" fill="white"/>
<path d="M102.888 0.910665C101.599 0.286419 100.245 0 98.8237 0C92.3937 0 84.6161 5.82385 75.8645 12.7713C65.2746 4.35504 56.1056 -2.35745 49.0676 1.03551C43.3113 3.81892 42.6522 11.7138 42.6522 17.4201C42.6522 23.1265 43.3187 31.0214 49.0676 33.8048C56.0982 37.2051 65.2746 30.4853 75.8718 22.0689L81.716 17.4201C88.5488 12.059 96.8098 6.04417 99.7392 7.46158C100.135 7.64518 102.09 9.02587 102.09 17.4201C102.09 22.8695 101.27 25.3591 100.581 26.4827C99.8197 28.1866 97.2199 29.2882 92.7525 28.26C93.0015 28.0103 93.3091 27.6284 93.6167 27.1951C93.8511 26.8573 94.0927 26.4901 94.2978 26.1376C94.5981 25.6088 94.8324 25.1167 94.913 24.7569L94.9423 24.5439L90.4896 23.8609L88.1826 23.5084L77.8931 21.9368L77.7759 22.0322L88.0362 27.6064L86.9962 28.6566C86.9962 28.6566 86.9962 28.6566 86.9816 28.6713C86.9157 28.7374 86.5641 29.0825 85.9197 29.5893C85.6633 29.8023 85.3631 30.0299 85.0189 30.2796C84.7333 30.4926 84.411 30.7129 84.0668 30.9479C89.7426 33.8709 95.4696 36.1329 101.182 34.5539H101.189C101.775 34.407 102.339 34.2014 102.903 33.937C108.689 31.1389 109.362 23.1706 109.362 17.4201C109.362 11.6697 108.689 3.70141 102.903 0.910665H102.888ZM53.2494 27.4595C52.8539 27.4595 52.5097 27.3934 52.2168 27.2539C51.8359 27.0703 49.9025 25.719 49.9025 17.4201C49.9025 9.12134 51.8359 7.77738 52.2168 7.59377C55.1096 6.19106 63.2387 12.103 70.0276 17.4201C63.9344 22.2085 56.7354 27.4595 53.2494 27.4595Z" fill="white"/>
<g style="mix-blend-mode:multiply">
<path d="M70.0277 17.4201C68.7681 16.436 67.4645 15.4226 66.1536 14.4458L71.9977 9.7309C73.2647 10.7077 74.561 11.7285 75.8792 12.7713C76.8459 12.0076 68.9878 18.2353 70.035 17.4201H70.0277Z" fill="white"/>
</g>
</svg>
